<svg xmlns="http://www.w3.org/2000/svg" width="256" height="256" viewBox="0 0 256 256"><path fill="#41D1FF" d="M228.053 33.333a10.667 10.667 0 0 0-10.133-1.066l-85.334 29.867a10.667 10.667 0 0 0-8 10.027l-2.133 38.4a10.667 10.667 0 0 1-8.214 10.24l-42.666 12.8a10.667 10.667 0 0 0-7.894 9.92v2.133a10.667 10.667 0 0 0 6.4 9.494l74.666 37.333a10.667 10.667 0 0 0 8.96-1.067l85.334-42.667a10.667 10.667 0 0 0 6.4-9.493V43.307a10.667 10.667 0 0 0-4.266-8.96Zm-93.866 69.867l-2.134 38.4a10.667 10.667 0 0 1-8.213 10.24l-42.667 12.8a10.667 10.667 0 0 0-7.893 9.92v2.133a10.667 10.667 0 0 0 6.4 9.494l74.666 37.333a10.667 10.667 0 0 0 8.96-1.067l85.334-42.667a10.667 10.667 0 0 0 6.4-9.493v-58.027l-85.334 29.867a10.667 10.667 0 0 0-8.213 10.133Z" opacity=".5"/><path fill="#41D1FF" d="M228.053 33.333a10.667 10.667 0 0 0-10.133-1.066l-85.334 29.867a10.667 10.667 0 0 0-8 10.027l-2.133 38.4a10.667 10.667 0 0 1-8.214 10.24l-42.666 12.8a10.667 10.667 0 0 0-7.894 9.92v2.133a10.667 10.667 0 0 0 6.4 9.494l74.666 37.333a10.667 10.667 0 0 0 8.96-1.067l85.334-42.667a10.667 10.667 0 0 0 6.4-9.493V43.307a10.667 10.667 0 0 0-4.266-8.96Z"/><path fill="#FFD034" d="M117.333 133.333a10.667 10.667 0 0 0-10.133-1.066l-85.333 29.866a10.667 10.667 0 0 0-8 10.027l-2.134 38.4a10.667 10.667 0 0 1-8.213 10.24l-42.667 12.8a10.667 10.667 0 0 0-7.893 9.92v2.133a10.667 10.667 0 0 0 6.4 9.494l74.667 37.333a10.667 10.667 0 0 0 8.96-1.067l85.333-42.667a10.667 10.667 0 0 0 6.4-9.493v-91.093a10.667 10.667 0 0 0-4.267-8.96Z" transform="translate(58.667 -78.667)"/></svg>